# Blender v2.76 (sub 0) OBJ File: 'env1.blend'
# www.blender.org
mtllib QuadrupedWorld.mtl
o Cube_Cube.001
v 230.473816 16.459190 230.473877
v 230.473862 16.459190 -230.473846
v 230.473816 -0.326019 230.473877
v 230.473862 -0.326019 -230.473846
v -230.473862 16.459190 -230.473877
v -230.473862 16.459190 230.473846
v -230.473862 -0.326020 -230.473877
v -230.473862 -0.326020 230.473846
v 230.473862 16.459190 -230.473816
v -230.473862 16.459190 -230.473877
v 230.473862 -0.326019 -230.473816
v -230.473862 -0.326019 -230.473877
v -230.473862 16.459190 230.473862
v 230.473862 16.459190 230.473862
v -230.473862 -0.326019 230.473862
v 230.473862 -0.326019 230.473862
v -230.473862 0.000001 230.473862
v 230.473862 0.000000 230.473862
v -230.473862 0.000001 -230.473862
v 230.473862 0.000000 -230.473862
v 230.473816 16.459190 230.473877
v 230.473862 16.459190 -230.473846
v 230.473816 -0.326019 230.473877
v 230.473862 -0.326019 -230.473846
v -230.473862 16.459190 -230.473877
v -230.473862 16.459190 230.473846
v -230.473862 -0.326020 -230.473877
v -230.473862 -0.326020 230.473846
v 230.473862 16.459190 -230.473816
v -230.473862 16.459190 -230.473877
v 230.473862 -0.326019 -230.473816
v -230.473862 -0.326019 -230.473877
v -230.473862 16.459190 230.473862
v 230.473862 16.459190 230.473862
v -230.473862 -0.326019 230.473862
v 230.473862 -0.326019 230.473862
v -230.473862 0.000001 230.473862
v 230.473862 0.000000 230.473862
v -230.473862 0.000001 -230.473862
v 230.473862 0.000000 -230.473862
vt 56.526222 -83.650864
vt 58.911625 -83.650864
vt 58.911633 -0.712614
vt 56.526222 -0.712599
vt 58.911625 82.225639
vt 56.526211 82.225639
vt 54.140800 82.225639
vt 54.140800 -0.712599
vt 51.755386 -83.650864
vt 54.140797 -83.650864
vt 19.303185 1.415294
vt 19.303198 84.353531
vt -67.526550 84.353531
vt 51.755386 82.225639
vt 51.755383 -0.712599
vt 63.682453 -83.650864
vt 63.682453 -0.712609
vt 61.297047 -0.712609
vt 61.297047 -83.650864
vt -67.526520 1.415294
vt -67.526550 -81.522949
vt 19.303185 -81.522972
vt -67.526550 1.415304
vn -1.000000 0.000000 -0.000000
vn 1.000000 0.000000 0.000000
vn -0.000000 0.000000 1.000000
vn 0.000000 0.000000 -1.000000
vn 0.000000 1.000000 0.000000
vn -0.000000 -1.000000 0.000000
usemtl Material.001
s off
f 2/1/1 4/2/1 3/3/1
f 6/4/2 8/3/2 7/5/2
f 10/6/3 12/7/3 11/8/3
f 14/9/4 16/10/4 15/8/4
f 18/11/5 20/12/5 19/13/5
f 23/14/2 24/15/2 22/8/2
f 27/1/1 28/4/1 26/8/1
f 31/16/4 32/17/4 30/18/4
f 35/3/3 36/2/3 34/19/3
f 39/20/6 40/21/6 38/22/6
f 1/4/1 2/1/1 3/3/1
f 5/6/2 6/4/2 7/5/2
f 9/4/3 10/6/3 11/8/3
f 13/15/4 14/9/4 15/8/4
f 17/23/5 18/11/5 19/13/5
f 21/7/2 23/14/2 22/8/2
f 25/10/1 27/1/1 26/8/1
f 29/19/4 31/16/4 30/18/4
f 33/18/3 35/3/3 34/19/3
f 37/11/6 39/20/6 38/22/6
