# Blender v2.76 (sub 0) OBJ File: ''
# www.blender.org
mtllib Sandbox.mtl
o Plane.003
v 39.999992 2.856583 40.000004
v 40.000000 2.856583 -39.999996
v 39.999992 -0.056582 40.000004
v 40.000000 -0.056582 -39.999996
v -40.000000 2.856583 -40.000004
v -40.000000 2.856583 39.999996
v -40.000000 -0.056583 -40.000004
v -40.000000 -0.056583 39.999996
v 40.000000 2.856583 -39.999992
v -40.000000 2.856583 -40.000004
v 40.000000 -0.056582 -39.999992
v -40.000000 -0.056582 -40.000004
v -40.000000 2.856583 40.000000
v 40.000000 2.856583 40.000000
v -40.000000 -0.056582 40.000000
v 40.000000 -0.056582 40.000000
v -40.000000 0.000000 40.000000
v 40.000000 0.000000 40.000000
v -40.000000 0.000000 -40.000000
v 40.000000 0.000000 -40.000000
v 39.999992 2.856583 40.000004
v 40.000000 2.856583 -39.999996
v 39.999992 -0.056582 40.000004
v 40.000000 -0.056582 -39.999996
v -40.000000 2.856583 -40.000004
v -40.000000 2.856583 39.999996
v -40.000000 -0.056583 -40.000004
v -40.000000 -0.056583 39.999996
v 40.000000 2.856583 -39.999992
v -40.000000 2.856583 -40.000004
v 40.000000 -0.056582 -39.999992
v -40.000000 -0.056582 -40.000004
v -40.000000 2.856583 40.000000
v 40.000000 2.856583 40.000000
v -40.000000 -0.056582 40.000000
v 40.000000 -0.056582 40.000000
v -40.000000 0.000000 40.000000
v 40.000000 0.000000 40.000000
v -40.000000 0.000000 -40.000000
v 40.000000 0.000000 -40.000000
vt 0.500251 0.749751
vt 0.500251 0.500250
vt 0.749752 0.500250
vt 0.500251 0.000250
vt 0.749752 0.000250
vt 0.749752 0.249750
vt 0.250250 0.000250
vt 0.499751 0.000250
vt 0.499752 0.249750
vt 0.249750 0.000250
vt 0.249751 0.249750
vt 0.000251 0.249751
vt 0.499751 0.749751
vt 0.250250 0.749751
vt 0.250250 0.500250
vt 0.249750 0.749751
vt 0.000250 0.749751
vt 0.000250 0.500250
vt 0.500251 0.250250
vt 0.749752 0.250250
vt 0.749752 0.499751
vt 0.499752 0.499751
vt 0.250251 0.499751
vt 0.250250 0.250250
vt 0.249750 0.250250
vt 0.249751 0.499751
vt 0.000250 0.499751
vt 0.000250 0.999750
vt 0.000250 0.750250
vt 0.249750 0.750250
vt 0.749752 0.749751
vt 0.500251 0.249750
vt 0.250251 0.249750
vt 0.000250 0.000250
vt 0.499751 0.500250
vt 0.249750 0.500250
vt 0.500251 0.499751
vt 0.499751 0.250250
vt 0.000250 0.250250
vt 0.249750 0.999750
vn -1.000000 0.000000 -0.000000
vn 1.000000 0.000000 0.000000
vn -0.000000 0.000000 1.000000
vn 0.000000 0.000000 -1.000000
vn 0.000000 1.000000 0.000000
vn 0.000000 -1.000000 0.000000
usemtl Material.001
s off
f 2/1/1 4/2/1 3/3/1
f 6/4/2 8/5/2 7/6/2
f 10/7/3 12/8/3 11/9/3
f 14/10/4 16/11/4 15/12/4
f 18/13/5 20/14/5 19/15/5
f 23/16/2 24/17/2 22/18/2
f 27/19/1 28/20/1 26/21/1
f 31/22/4 32/23/4 30/24/4
f 35/25/3 36/26/3 34/27/3
f 39/28/6 40/29/6 38/30/6
f 1/31/1 2/1/1 3/3/1
f 5/32/2 6/4/2 7/6/2
f 9/33/3 10/7/3 11/9/3
f 13/34/4 14/10/4 15/12/4
f 17/35/5 18/13/5 19/15/5
f 21/36/2 23/16/2 22/18/2
f 25/37/1 27/19/1 26/21/1
f 29/38/4 31/22/4 30/24/4
f 33/39/3 35/25/3 34/27/3
f 37/40/6 39/28/6 38/30/6
