# Blender v2.76 (sub 0) OBJ File: 'tennisCourt.blend'
# www.blender.org
mtllib tennisCourt.mtl
o Cube.003_Cube.004
v -7.173721 -0.030333 -3.549613
v -7.173721 0.010654 -3.549613
v -7.214709 -0.030333 -3.549613
v -7.214709 0.010654 -3.549613
v -7.173722 -0.030333 3.563665
v -7.173722 0.010654 3.563665
v -7.214709 -0.030333 3.563665
v -7.214709 0.010654 3.563665
vt 0.999976 0.059423
vt 0.990670 0.000025
vt 0.957829 0.021744
vt 0.000024 0.000024
vt 0.044052 0.017010
vt 0.009330 0.059423
vt 0.042171 0.037703
vt 0.955947 0.042437
vn 0.000000 0.000000 -1.000000
vn -1.000000 0.000000 -0.000000
vn 0.000000 0.000000 1.000000
vn 1.000000 0.000000 0.000000
vn 0.000000 1.000000 -0.000000
usemtl Material.008
s off
f 1/1/1 3/2/1 4/3/1
f 3/2/2 7/4/2 8/5/2
f 7/4/3 5/6/3 6/7/3
f 5/6/4 1/1/4 2/8/4
f 6/7/5 2/8/5 4/3/5
f 2/8/1 1/1/1 4/3/1
f 4/3/2 3/2/2 8/5/2
f 8/5/3 7/4/3 6/7/3
f 6/7/4 5/6/4 2/8/4
f 8/5/5 6/7/5 4/3/5
o Cube.002_Cube.003
v 7.219768 -0.030333 -3.549613
v 7.219768 0.010654 -3.549613
v 7.178781 -0.030333 -3.549613
v 7.178781 0.010654 -3.549613
v 7.219768 -0.030333 3.563665
v 7.219768 0.010654 3.563665
v 7.178780 -0.030333 3.563665
v 7.178780 0.010654 3.563665
vt 0.999976 0.059423
vt 0.990670 0.000025
vt 0.957829 0.021744
vt 0.000024 0.000024
vt 0.044052 0.017010
vt 0.009330 0.059423
vt 0.042171 0.037703
vt 0.955947 0.042437
vn 0.000000 0.000000 -1.000000
vn -1.000000 0.000000 -0.000000
vn 0.000000 0.000000 1.000000
vn 1.000000 0.000000 0.000000
vn 0.000000 1.000000 -0.000000
usemtl Material.008
s off
f 9/9/6 11/10/6 12/11/6
f 11/10/7 15/12/7 16/13/7
f 15/12/8 13/14/8 14/15/8
f 13/14/9 9/9/9 10/16/9
f 14/15/10 10/16/10 12/11/10
f 10/16/6 9/9/6 12/11/6
f 12/11/7 11/10/7 16/13/7
f 16/13/8 15/12/8 14/15/8
f 14/15/9 13/14/9 10/16/9
f 16/13/10 14/15/10 12/11/10
o Cube.001_Cube.002
v 7.203773 -0.030333 -3.513934
v 7.203773 0.010654 -3.513934
v 7.203773 -0.030333 -3.554921
v 7.203773 0.010654 -3.554921
v -7.205226 -0.030333 -3.513934
v -7.205226 0.010654 -3.513934
v -7.205226 -0.030333 -3.554921
v -7.205226 0.010654 -3.554921
vt 0.999976 0.059423
vt 0.990670 0.000025
vt 0.957829 0.021744
vt 0.000024 0.000024
vt 0.044052 0.017010
vt 0.009330 0.059423
vt 0.042171 0.037703
vt 0.955947 0.042437
vn 1.000000 0.000000 0.000000
vn 0.000000 0.000000 -1.000000
vn -1.000000 0.000000 0.000000
vn 0.000000 0.000000 1.000000
vn 0.000000 1.000000 0.000000
usemtl Material.008
s off
f 17/17/11 19/18/11 20/19/11
f 19/18/12 23/20/12 24/21/12
f 23/20/13 21/22/13 22/23/13
f 21/22/14 17/17/14 18/24/14
f 18/24/15 20/19/15 24/21/15
f 18/24/11 17/17/11 20/19/11
f 20/19/12 19/18/12 24/21/12
f 24/21/13 23/20/13 22/23/13
f 22/23/14 21/22/14 18/24/14
f 22/23/15 18/24/15 24/21/15
o Cube_Cube.001
v 7.203773 -0.030333 3.561883
v 7.203773 0.010654 3.561883
v 7.203773 -0.030333 3.520896
v 7.203773 0.010654 3.520896
v -7.205226 -0.030333 3.561883
v -7.205226 0.010654 3.561883
v -7.205226 -0.030333 3.520896
v -7.205226 0.010654 3.520896
vt 0.999976 0.059423
vt 0.990670 0.000025
vt 0.957829 0.021744
vt 0.000024 0.000024
vt 0.044052 0.017010
vt 0.009330 0.059423
vt 0.042171 0.037703
vt 0.955947 0.042437
vn 1.000000 0.000000 0.000000
vn 0.000000 0.000000 -1.000000
vn -1.000000 0.000000 0.000000
vn 0.000000 0.000000 1.000000
vn 0.000000 1.000000 0.000000
usemtl Material.008
s off
f 25/25/16 27/26/16 28/27/16
f 27/26/17 31/28/17 32/29/17
f 31/28/18 29/30/18 30/31/18
f 29/30/19 25/25/19 26/32/19
f 26/32/20 28/27/20 32/29/20
f 26/32/16 25/25/16 28/27/16
f 28/27/17 27/26/17 32/29/17
f 32/29/18 31/28/18 30/31/18
f 30/31/19 29/30/19 26/32/19
f 30/31/20 26/32/20 32/29/20
o Plane.002_Plane.004
v -7.200000 0.000000 3.539899
v 7.200000 0.000000 3.539899
v -7.200000 0.000000 -3.539899
v 7.200000 0.000000 -3.539899
v -7.968225 -0.176195 -4.314908
v -7.968225 -0.176195 4.314908
v 7.968225 -0.176195 4.314908
v 7.968225 -0.176195 -4.314908
vt 3.976977 6.880583
vt 3.976976 -5.880585
vt 3.352469 -5.265426
vt -2.976976 -5.880583
vt -2.352470 -5.265424
vt -2.976975 6.880585
vt 3.352471 6.265424
vt -2.352469 6.265426
vn 0.000000 0.975100 0.221700
vn 0.223500 0.974700 0.000000
vn -0.223500 0.974700 0.000000
vn 0.000000 0.975100 -0.221700
usemtl Material.001
s off
f 38/33/21 39/34/21 34/35/21
f 39/34/22 40/36/22 36/37/22
f 37/38/23 38/33/23 33/39/23
f 40/36/24 37/38/24 35/40/24
f 33/39/21 38/33/21 34/35/21
f 34/35/22 39/34/22 36/37/22
f 35/40/23 37/38/23 33/39/23
f 36/37/24 40/36/24 35/40/24
o Cylinder.001
v 0.000000 -0.010331 -3.369019
v 0.000000 0.756197 -3.369019
v 0.007011 -0.010331 -3.368328
v 0.007011 0.756197 -3.368328
v 0.013752 -0.010331 -3.366283
v 0.013752 0.756197 -3.366283
v 0.019964 -0.010331 -3.362963
v 0.019964 0.756197 -3.362963
v 0.025410 -0.010331 -3.358494
v 0.025410 0.756197 -3.358494
v 0.029879 -0.010331 -3.353048
v 0.029879 0.756197 -3.353048
v 0.033199 -0.010331 -3.346836
v 0.033199 0.756197 -3.346836
v 0.035244 -0.010331 -3.340095
v 0.035244 0.756197 -3.340095
v 0.035935 -0.010331 -3.333084
v 0.035935 0.756197 -3.333084
v 0.035244 -0.010331 -3.326074
v 0.035244 0.756197 -3.326074
v 0.033199 -0.010331 -3.319333
v 0.033199 0.756197 -3.319333
v 0.029879 -0.010331 -3.313120
v 0.029879 0.756197 -3.313120
v 0.025410 -0.010331 -3.307674
v 0.025410 0.756197 -3.307674
v 0.019964 -0.010331 -3.303205
v 0.019964 0.756197 -3.303205
v 0.013752 -0.010331 -3.299885
v 0.013752 0.756197 -3.299885
v 0.007010 -0.010331 -3.297840
v 0.007010 0.756197 -3.297840
v -0.000000 -0.010331 -3.297149
v -0.000000 0.756197 -3.297149
v -0.007011 -0.010331 -3.297840
v -0.007011 0.756197 -3.297840
v -0.013752 -0.010331 -3.299885
v -0.013752 0.756197 -3.299885
v -0.019964 -0.010331 -3.303205
v -0.019964 0.756197 -3.303205
v -0.025410 -0.010331 -3.307674
v -0.025410 0.756197 -3.307674
v -0.029879 -0.010331 -3.313120
v -0.029879 0.756197 -3.313120
v -0.033199 -0.010331 -3.319333
v -0.033199 0.756197 -3.319333
v -0.035244 -0.010331 -3.326074
v -0.035244 0.756197 -3.326074
v -0.035935 -0.010331 -3.333084
v -0.035935 0.756197 -3.333084
v -0.035244 -0.010331 -3.340095
v -0.035244 0.756197 -3.340095
v -0.033199 -0.010331 -3.346836
v -0.033199 0.756197 -3.346836
v -0.029879 -0.010331 -3.353048
v -0.029879 0.756197 -3.353048
v -0.025410 -0.010331 -3.358494
v -0.025410 0.756197 -3.358494
v -0.019964 -0.010331 -3.362963
v -0.019964 0.756197 -3.362963
v -0.013752 -0.010331 -3.366283
v -0.013752 0.756197 -3.366283
v -0.007010 -0.010331 -3.368328
v -0.007010 0.756197 -3.368328
v 0.007011 0.756197 -3.368328
v 0.000000 0.756197 -3.369019
v 0.013752 0.756197 -3.366283
v 0.019964 0.756197 -3.362963
v 0.025410 0.756197 -3.358494
v 0.029879 0.756197 -3.353048
v 0.033199 0.756197 -3.346836
v 0.035244 0.756197 -3.340095
v 0.035935 0.756197 -3.333084
v 0.035244 0.756197 -3.326074
v 0.033199 0.756197 -3.319333
v 0.029879 0.756197 -3.313120
v 0.025410 0.756197 -3.307674
v 0.019964 0.756197 -3.303205
v 0.013752 0.756197 -3.299885
v 0.007010 0.756197 -3.297840
v -0.000000 0.756197 -3.297149
v -0.007011 0.756197 -3.297840
v -0.013752 0.756197 -3.299885
v -0.019964 0.756197 -3.303205
v -0.025410 0.756197 -3.307674
v -0.029879 0.756197 -3.313120
v -0.033199 0.756197 -3.319333
v -0.035244 0.756197 -3.326074
v -0.035935 0.756197 -3.333084
v -0.035244 0.756197 -3.340095
v -0.033199 0.756197 -3.346836
v -0.029879 0.756197 -3.353048
v -0.025410 0.756197 -3.358494
v -0.019964 0.756197 -3.362963
v -0.013752 0.756197 -3.366283
v -0.007010 0.756197 -3.368328
vt 0.677407 0.244144
vt 0.690896 0.310925
vt 0.347221 0.353102
vt 0.691109 0.379111
vt 0.345665 0.353390
vt 0.678009 0.446080
vt 0.344096 0.353356
vt 0.652077 0.509243
vt 0.342578 0.353004
vt 0.614297 0.566155
vt 0.341174 0.352347
vt 0.566118 0.614608
vt 0.339943 0.351415
vt 0.509402 0.652724
vt 0.338941 0.350242
vt 0.446340 0.679030
vt 0.338208 0.348878
vt 0.379306 0.692077
vt 0.337764 0.347379
vt 0.311065 0.691799
vt 0.337592 0.345817
vt 0.244235 0.678234
vt 0.337706 0.344247
vt 0.181370 0.651926
vt 0.338105 0.342725
vt 0.124868 0.613903
vt 0.338774 0.341302
vt 0.076872 0.565631
vt 0.339689 0.340029
vt 0.039192 0.508943
vt 0.340812 0.338949
vt 0.013271 0.446009
vt 0.342108 0.338103
vt 0.000100 0.379233
vt 0.343526 0.337520
vt 0.000189 0.311159
vt 0.345010 0.337217
vt 0.013543 0.244408
vt 0.346508 0.337208
vt 0.039648 0.181554
vt 0.347965 0.337489
vt 0.077492 0.125021
vt 0.349323 0.338046
vt 0.125600 0.076985
vt 0.350532 0.338858
vt 0.182112 0.039275
vt 0.351552 0.339892
vt 0.244842 0.013323
vt 0.352339 0.341104
vt 0.311417 0.000100
vt 0.352915 0.342676
vt 0.379289 0.000100
vt 0.353186 0.344324
vt 0.445876 0.013319
vt 0.353144 0.345988
vt 0.508629 0.039253
vt 0.352789 0.347606
vt 0.565149 0.076914
vt 0.352133 0.349119
vt 0.613280 0.124872
vt 0.351205 0.350470
vt 0.708870 0.081309
vt 0.993971 0.109389
vt 0.982339 0.227482
vt 0.651191 0.181330
vt 0.348701 0.352503
vt 0.350048 0.351615
vt 0.965454 0.252754
vt 0.943962 0.274245
vt 0.918691 0.291130
vt 0.890611 0.302762
vt 0.860802 0.308691
vt 0.830408 0.308691
vt 0.800598 0.302761
vt 0.772518 0.291130
vt 0.747247 0.274244
vt 0.697239 0.199402
vt 0.725755 0.252753
vt 0.708870 0.227482
vt 0.691309 0.169592
vt 0.691309 0.139199
vt 0.697239 0.109389
vt 0.725756 0.056038
vt 0.747247 0.034546
vt 0.772519 0.017661
vt 0.800598 0.006030
vt 0.830408 0.000100
vt 0.860802 0.000100
vt 0.890611 0.006030
vt 0.918691 0.017661
vt 0.943962 0.034546
vt 0.965454 0.056038
vt 0.982339 0.081309
vt 0.999900 0.139199
vt 0.999900 0.169593
vt 0.993971 0.199402
vn 0.000000 0.000000 -1.000000
vn 0.195100 0.000000 -0.980800
vn 0.382600 0.000000 -0.923900
vn 0.555600 0.000000 -0.831400
vn 0.707100 0.000000 -0.707100
vn 0.831400 0.000000 -0.555600
vn 0.923900 0.000000 -0.382700
vn 0.980800 0.000000 -0.195100
vn 1.000000 0.000000 0.000000
vn 0.980800 0.000000 0.195100
vn 0.923900 0.000000 0.382700
vn 0.923900 0.000000 0.382600
vn 0.831400 0.000000 0.555600
vn 0.707100 0.000000 0.707100
vn 0.555600 0.000000 0.831400
vn 0.382700 0.000000 0.923900
vn 0.382600 0.000000 0.923900
vn 0.195100 0.000000 0.980800
vn 0.000000 0.000000 1.000000
vn -0.195100 0.000000 0.980800
vn -0.382600 0.000000 0.923900
vn -0.382700 0.000000 0.923900
vn -0.555600 0.000000 0.831400
vn -0.707100 0.000000 0.707100
vn -0.831400 0.000000 0.555600
vn -0.923900 0.000000 0.382600
vn -0.923900 0.000000 0.382700
vn -0.980800 0.000000 0.195100
vn -1.000000 0.000000 0.000000
vn -0.980800 0.000000 -0.195100
vn -0.980800 0.000000 -0.195000
vn -0.923900 0.000000 -0.382700
vn -0.923900 0.000000 -0.382600
vn -0.831400 0.000000 -0.555600
vn -0.707100 0.000000 -0.707100
vn -0.555600 0.000000 -0.831400
vn -0.382600 0.000000 -0.923900
vn 0.000000 1.000000 0.000000
vn -0.195100 0.000000 -0.980800
vn 0.000000 1.000000 -0.000100
vn 0.000000 1.000000 0.000100
usemtl Material.004
s 1
f 106/41/25 105/42/26 43/43/26
f 105/42/26 107/44/27 45/45/27
f 107/44/27 108/46/28 47/47/28
f 108/46/28 109/48/29 49/49/29
f 109/48/29 110/50/30 51/51/30
f 110/50/30 111/52/31 53/53/31
f 111/52/31 112/54/32 55/55/32
f 112/54/32 113/56/33 57/57/33
f 113/56/33 114/58/34 59/59/34
f 114/58/34 115/60/35 61/61/36
f 115/60/35 116/62/37 63/63/37
f 116/62/37 117/64/38 65/65/38
f 117/64/38 118/66/39 67/67/39
f 118/66/39 119/68/40 69/69/41
f 119/68/40 120/70/42 71/71/42
f 120/70/42 121/72/43 73/73/43
f 121/72/43 122/74/44 75/75/44
f 122/74/44 123/76/45 77/77/46
f 123/76/45 124/78/47 79/79/47
f 124/78/47 125/80/48 81/81/48
f 125/80/48 126/82/49 83/83/49
f 126/82/49 127/84/50 85/85/51
f 127/84/50 128/86/52 87/87/52
f 128/86/52 129/88/53 89/89/53
f 129/88/53 130/90/54 91/91/55
f 130/90/54 131/92/56 93/93/57
f 131/92/56 132/94/58 95/95/58
f 132/94/58 133/96/59 97/97/59
f 133/96/59 134/98/60 99/99/60
f 134/98/60 135/100/61 101/101/61
f 78/102/62 54/103/62 46/104/62
f 104/105/63 106/41/25 41/106/25
f 135/100/61 104/105/63 103/107/63
f 41/106/25 106/41/25 43/43/26
f 43/43/26 105/42/26 45/45/27
f 45/45/27 107/44/27 47/47/28
f 47/47/28 108/46/28 49/49/29
f 49/49/29 109/48/29 51/51/30
f 51/51/30 110/50/30 53/53/31
f 53/53/31 111/52/31 55/55/32
f 55/55/32 112/54/32 57/57/33
f 57/57/33 113/56/33 59/59/34
f 59/59/34 114/58/34 61/61/36
f 61/61/36 115/60/35 63/63/37
f 63/63/37 116/62/37 65/65/38
f 65/65/38 117/64/38 67/67/39
f 67/67/39 118/66/39 69/69/41
f 69/69/41 119/68/40 71/71/42
f 71/71/42 120/70/42 73/73/43
f 73/73/43 121/72/43 75/75/44
f 75/75/44 122/74/44 77/77/46
f 77/77/46 123/76/45 79/79/47
f 79/79/47 124/78/47 81/81/48
f 81/81/48 125/80/48 83/83/49
f 83/83/49 126/82/49 85/85/51
f 85/85/51 127/84/50 87/87/52
f 87/87/52 128/86/52 89/89/53
f 89/89/53 129/88/53 91/91/55
f 91/91/55 130/90/54 93/93/57
f 93/93/57 131/92/56 95/95/58
f 95/95/58 132/94/58 97/97/59
f 97/97/59 133/96/59 99/99/60
f 99/99/60 134/98/60 101/101/61
f 46/104/62 44/108/64 42/109/62
f 42/109/62 136/110/65 102/111/62
f 102/111/62 100/112/62 98/113/64
f 98/113/64 96/114/65 102/111/62
f 94/115/62 92/116/62 86/117/62
f 90/118/62 88/119/62 86/117/62
f 86/117/62 84/120/62 78/102/62
f 82/121/62 80/122/65 78/102/62
f 78/102/62 76/123/64 74/124/62
f 74/124/62 72/125/62 70/126/62
f 70/126/62 68/127/64 66/128/62
f 66/128/62 64/129/62 70/126/62
f 62/130/62 60/131/62 54/103/62
f 58/132/62 56/133/62 54/103/62
f 54/103/62 52/134/62 46/104/62
f 50/135/62 48/136/62 46/104/62
f 46/104/62 42/109/62 102/111/62
f 102/111/62 96/114/65 94/115/62
f 92/116/62 90/118/62 86/117/62
f 84/120/62 82/121/62 78/102/62
f 78/102/62 74/124/62 70/126/62
f 70/126/62 64/129/62 62/130/62
f 60/131/62 58/132/62 54/103/62
f 52/134/62 50/135/62 46/104/62
f 46/104/62 102/111/62 94/115/62
f 94/115/62 86/117/62 46/104/62
f 78/102/62 70/126/62 62/130/62
f 62/130/62 54/103/62 78/102/62
f 46/104/62 86/117/62 78/102/62
f 103/107/63 104/105/63 41/106/25
f 101/101/61 135/100/61 103/107/63
o Cylinder
v 0.000000 -0.010331 3.273172
v 0.000000 0.756197 3.273172
v 0.007011 -0.010331 3.273862
v 0.007011 0.756197 3.273862
v 0.013752 -0.010331 3.275907
v 0.013752 0.756197 3.275907
v 0.019964 -0.010331 3.279228
v 0.019964 0.756197 3.279228
v 0.025410 -0.010331 3.283697
v 0.025410 0.756197 3.283697
v 0.029879 -0.010331 3.289142
v 0.029879 0.756197 3.289142
v 0.033199 -0.010331 3.295355
v 0.033199 0.756197 3.295355
v 0.035244 -0.010331 3.302096
v 0.035244 0.756197 3.302096
v 0.035935 -0.010331 3.309106
v 0.035935 0.756197 3.309106
v 0.035244 -0.010331 3.316117
v 0.035244 0.756197 3.316117
v 0.033199 -0.010331 3.322858
v 0.033199 0.756197 3.322858
v 0.029879 -0.010331 3.329071
v 0.029879 0.756197 3.329071
v 0.025410 -0.010331 3.334516
v 0.025410 0.756197 3.334516
v 0.019964 -0.010331 3.338985
v 0.019964 0.756197 3.338985
v 0.013752 -0.010331 3.342306
v 0.013752 0.756197 3.342306
v 0.007010 -0.010331 3.344351
v 0.007010 0.756197 3.344351
v -0.000000 -0.010331 3.345041
v -0.000000 0.756197 3.345041
v -0.007011 -0.010331 3.344351
v -0.007011 0.756197 3.344351
v -0.013752 -0.010331 3.342306
v -0.013752 0.756197 3.342306
v -0.019964 -0.010331 3.338985
v -0.019964 0.756197 3.338985
v -0.025410 -0.010331 3.334516
v -0.025410 0.756197 3.334516
v -0.029879 -0.010331 3.329071
v -0.029879 0.756197 3.329071
v -0.033199 -0.010331 3.322858
v -0.033199 0.756197 3.322858
v -0.035244 -0.010331 3.316117
v -0.035244 0.756197 3.316117
v -0.035935 -0.010331 3.309106
v -0.035935 0.756197 3.309106
v -0.035244 -0.010331 3.302096
v -0.035244 0.756197 3.302096
v -0.033199 -0.010331 3.295355
v -0.033199 0.756197 3.295355
v -0.029879 -0.010331 3.289142
v -0.029879 0.756197 3.289142
v -0.025410 -0.010331 3.283697
v -0.025410 0.756197 3.283697
v -0.019964 -0.010331 3.279228
v -0.019964 0.756197 3.279228
v -0.013752 -0.010331 3.275907
v -0.013752 0.756197 3.275907
v -0.007010 -0.010331 3.273862
v -0.007010 0.756197 3.273862
v 0.007011 0.756197 3.273862
v 0.000000 0.756197 3.273172
v 0.013752 0.756197 3.275907
v 0.019964 0.756197 3.279228
v 0.025410 0.756197 3.283697
v 0.029879 0.756197 3.289142
v 0.033199 0.756197 3.295355
v 0.035244 0.756197 3.302096
v 0.035935 0.756197 3.309106
v 0.035244 0.756197 3.316117
v 0.033199 0.756197 3.322858
v 0.029879 0.756197 3.329071
v 0.025410 0.756197 3.334516
v 0.019964 0.756197 3.338985
v 0.013752 0.756197 3.342306
v 0.007010 0.756197 3.344351
v -0.000000 0.756197 3.345041
v -0.007011 0.756197 3.344351
v -0.013752 0.756197 3.342306
v -0.019964 0.756197 3.338985
v -0.025410 0.756197 3.334516
v -0.029879 0.756197 3.329071
v -0.033199 0.756197 3.322858
v -0.035244 0.756197 3.316117
v -0.035935 0.756197 3.309106
v -0.035244 0.756197 3.302096
v -0.033199 0.756197 3.295355
v -0.029879 0.756197 3.289142
v -0.025410 0.756197 3.283697
v -0.019964 0.756197 3.279228
v -0.013752 0.756197 3.275907
v -0.007010 0.756197 3.273862
vt 0.677407 0.244144
vt 0.690896 0.310925
vt 0.347221 0.353102
vt 0.691109 0.379111
vt 0.345665 0.353390
vt 0.678009 0.446080
vt 0.344096 0.353356
vt 0.652077 0.509243
vt 0.342578 0.353004
vt 0.614297 0.566155
vt 0.341174 0.352347
vt 0.566118 0.614608
vt 0.339943 0.351415
vt 0.509402 0.652724
vt 0.338941 0.350242
vt 0.446340 0.679030
vt 0.338208 0.348878
vt 0.379306 0.692077
vt 0.337764 0.347379
vt 0.311065 0.691799
vt 0.337592 0.345817
vt 0.244235 0.678234
vt 0.337706 0.344247
vt 0.181370 0.651926
vt 0.338105 0.342725
vt 0.124868 0.613903
vt 0.338774 0.341302
vt 0.076872 0.565631
vt 0.339689 0.340029
vt 0.039192 0.508943
vt 0.340812 0.338949
vt 0.013271 0.446009
vt 0.342108 0.338103
vt 0.000100 0.379233
vt 0.343526 0.337520
vt 0.000189 0.311159
vt 0.345010 0.337217
vt 0.013543 0.244408
vt 0.346508 0.337208
vt 0.039648 0.181554
vt 0.347965 0.337489
vt 0.077492 0.125021
vt 0.349323 0.338046
vt 0.125600 0.076985
vt 0.350532 0.338858
vt 0.182112 0.039275
vt 0.351552 0.339892
vt 0.244842 0.013323
vt 0.352339 0.341104
vt 0.311417 0.000100
vt 0.352915 0.342676
vt 0.379289 0.000100
vt 0.353186 0.344324
vt 0.445876 0.013319
vt 0.353144 0.345988
vt 0.508629 0.039253
vt 0.352789 0.347606
vt 0.565149 0.076914
vt 0.352133 0.349119
vt 0.613280 0.124872
vt 0.351205 0.350470
vt 0.708870 0.081309
vt 0.993971 0.109389
vt 0.982339 0.227482
vt 0.651191 0.181330
vt 0.348701 0.352503
vt 0.350048 0.351615
vt 0.965454 0.252754
vt 0.943962 0.274245
vt 0.918691 0.291130
vt 0.890611 0.302762
vt 0.860802 0.308691
vt 0.830408 0.308691
vt 0.800598 0.302761
vt 0.772518 0.291130
vt 0.747247 0.274244
vt 0.697239 0.199402
vt 0.725755 0.252753
vt 0.708870 0.227482
vt 0.691309 0.169592
vt 0.691309 0.139199
vt 0.697239 0.109389
vt 0.725756 0.056038
vt 0.747247 0.034546
vt 0.772519 0.017661
vt 0.800598 0.006030
vt 0.830408 0.000100
vt 0.860802 0.000100
vt 0.890611 0.006030
vt 0.918691 0.017661
vt 0.943962 0.034546
vt 0.965454 0.056038
vt 0.982339 0.081309
vt 0.999900 0.139199
vt 0.999900 0.169593
vt 0.993971 0.199402
vn 0.000000 0.000000 -1.000000
vn 0.195100 0.000000 -0.980800
vn 0.382600 0.000000 -0.923900
vn 0.555600 0.000000 -0.831400
vn 0.707100 0.000000 -0.707100
vn 0.831400 0.000000 -0.555600
vn 0.923900 0.000000 -0.382700
vn 0.980800 0.000000 -0.195100
vn 1.000000 0.000000 0.000000
vn 0.980800 0.000000 0.195100
vn 0.923900 0.000000 0.382700
vn 0.923900 0.000000 0.382600
vn 0.831400 0.000000 0.555600
vn 0.707100 0.000000 0.707100
vn 0.555600 0.000000 0.831400
vn 0.382700 0.000000 0.923900
vn 0.382600 0.000000 0.923900
vn 0.195100 0.000000 0.980800
vn 0.000000 0.000000 1.000000
vn -0.195100 0.000000 0.980800
vn -0.382600 0.000000 0.923900
vn -0.382700 0.000000 0.923900
vn -0.555600 0.000000 0.831400
vn -0.707100 0.000000 0.707100
vn -0.831400 0.000000 0.555600
vn -0.923900 0.000000 0.382600
vn -0.923900 0.000000 0.382700
vn -0.980800 0.000000 0.195100
vn -1.000000 0.000000 0.000000
vn -0.980800 0.000000 -0.195100
vn -0.980800 0.000000 -0.195000
vn -0.923900 0.000000 -0.382700
vn -0.923900 0.000000 -0.382600
vn -0.831400 0.000000 -0.555600
vn -0.707100 0.000000 -0.707100
vn -0.555600 0.000000 -0.831400
vn -0.382600 0.000000 -0.923900
vn 0.000000 1.000000 0.000000
vn -0.195100 0.000000 -0.980800
vn 0.000000 1.000000 -0.000100
vn 0.000000 1.000000 0.000100
usemtl Material.004
s 1
f 202/137/66 201/138/67 139/139/67
f 201/138/67 203/140/68 141/141/68
f 203/140/68 204/142/69 143/143/69
f 204/142/69 205/144/70 145/145/70
f 205/144/70 206/146/71 147/147/71
f 206/146/71 207/148/72 149/149/72
f 207/148/72 208/150/73 151/151/73
f 208/150/73 209/152/74 153/153/74
f 209/152/74 210/154/75 155/155/75
f 210/154/75 211/156/76 157/157/77
f 211/156/76 212/158/78 159/159/78
f 212/158/78 213/160/79 161/161/79
f 213/160/79 214/162/80 163/163/80
f 214/162/80 215/164/81 165/165/82
f 215/164/81 216/166/83 167/167/83
f 216/166/83 217/168/84 169/169/84
f 217/168/84 218/170/85 171/171/85
f 218/170/85 219/172/86 173/173/87
f 219/172/86 220/174/88 175/175/88
f 220/174/88 221/176/89 177/177/89
f 221/176/89 222/178/90 179/179/90
f 222/178/90 223/180/91 181/181/92
f 223/180/91 224/182/93 183/183/93
f 224/182/93 225/184/94 185/185/94
f 225/184/94 226/186/95 187/187/96
f 226/186/95 227/188/97 189/189/98
f 227/188/97 228/190/99 191/191/99
f 228/190/99 229/192/100 193/193/100
f 229/192/100 230/194/101 195/195/101
f 230/194/101 231/196/102 197/197/102
f 174/198/103 150/199/103 142/200/103
f 200/201/104 202/137/66 137/202/66
f 231/196/102 200/201/104 199/203/104
f 137/202/66 202/137/66 139/139/67
f 139/139/67 201/138/67 141/141/68
f 141/141/68 203/140/68 143/143/69
f 143/143/69 204/142/69 145/145/70
f 145/145/70 205/144/70 147/147/71
f 147/147/71 206/146/71 149/149/72
f 149/149/72 207/148/72 151/151/73
f 151/151/73 208/150/73 153/153/74
f 153/153/74 209/152/74 155/155/75
f 155/155/75 210/154/75 157/157/77
f 157/157/77 211/156/76 159/159/78
f 159/159/78 212/158/78 161/161/79
f 161/161/79 213/160/79 163/163/80
f 163/163/80 214/162/80 165/165/82
f 165/165/82 215/164/81 167/167/83
f 167/167/83 216/166/83 169/169/84
f 169/169/84 217/168/84 171/171/85
f 171/171/85 218/170/85 173/173/87
f 173/173/87 219/172/86 175/175/88
f 175/175/88 220/174/88 177/177/89
f 177/177/89 221/176/89 179/179/90
f 179/179/90 222/178/90 181/181/92
f 181/181/92 223/180/91 183/183/93
f 183/183/93 224/182/93 185/185/94
f 185/185/94 225/184/94 187/187/96
f 187/187/96 226/186/95 189/189/98
f 189/189/98 227/188/97 191/191/99
f 191/191/99 228/190/99 193/193/100
f 193/193/100 229/192/100 195/195/101
f 195/195/101 230/194/101 197/197/102
f 142/200/103 140/204/105 138/205/103
f 138/205/103 232/206/106 198/207/103
f 198/207/103 196/208/103 194/209/105
f 194/209/105 192/210/106 198/207/103
f 190/211/103 188/212/103 182/213/103
f 186/214/103 184/215/103 182/213/103
f 182/213/103 180/216/103 174/198/103
f 178/217/103 176/218/106 174/198/103
f 174/198/103 172/219/105 170/220/103
f 170/220/103 168/221/103 166/222/103
f 166/222/103 164/223/105 162/224/103
f 162/224/103 160/225/103 166/222/103
f 158/226/103 156/227/103 150/199/103
f 154/228/103 152/229/103 150/199/103
f 150/199/103 148/230/103 142/200/103
f 146/231/103 144/232/103 142/200/103
f 142/200/103 138/205/103 198/207/103
f 198/207/103 192/210/106 190/211/103
f 188/212/103 186/214/103 182/213/103
f 180/216/103 178/217/103 174/198/103
f 174/198/103 170/220/103 166/222/103
f 166/222/103 160/225/103 158/226/103
f 156/227/103 154/228/103 150/199/103
f 148/230/103 146/231/103 142/200/103
f 142/200/103 198/207/103 190/211/103
f 190/211/103 182/213/103 142/200/103
f 174/198/103 166/222/103 158/226/103
f 158/226/103 150/199/103 174/198/103
f 142/200/103 182/213/103 174/198/103
f 199/203/104 200/201/104 137/202/66
f 197/197/102 231/196/102 199/203/104
o Plane.001_Plane.002
v 0.000001 0.038750 -3.325911
v -0.000001 0.038750 3.325911
v 0.000001 0.734595 -3.325911
v -0.000001 0.734594 3.325911
v 0.000001 0.038750 -3.325911
v -0.000001 0.038750 3.325911
v 0.000001 0.734595 -3.325911
v -0.000001 0.734594 3.325911
vt 1.000269 0.000035
vt 1.000269 0.999965
vt -0.000696 0.999965
vt -0.000696 0.000035
vn -1.000000 0.000000 -0.000000
vn 1.000000 -0.000000 0.000000
usemtl Material.003
s off
f 234/233/107 236/234/107 235/235/107
f 239/235/108 240/234/108 238/233/108
f 233/236/107 234/233/107 235/235/107
f 237/236/108 239/235/108 238/233/108
o Plane
v -7.200000 0.000000 3.539899
v 7.200000 0.000000 3.539899
v -7.200000 0.000000 -3.539899
v 7.200000 0.000000 -3.539899
vt 0.999900 0.000100
vt 0.999900 0.999900
vt 0.000100 0.999900
vt 0.000100 0.000100
vn 0.000000 1.000000 0.000000
usemtl Material.001_tennisCourt.png
s off
f 242/237/109 244/238/109 243/239/109
f 241/240/109 242/237/109 243/239/109
