# Blender v2.76 (sub 0) OBJ File: 'tennisBall.blend'
# www.blender.org
mtllib tennisBall.mtl
o Sphere
v -0.177850 0.488640 0.000000
v -0.334250 0.398343 0.000000
v -0.450333 0.260000 0.000000
v -0.512100 0.090297 0.000000
v -0.512100 -0.090297 0.000000
v -0.450333 -0.260000 0.000000
v -0.334250 -0.398343 0.000000
v -0.154023 0.488640 -0.088925
v -0.289469 0.398343 -0.167125
v -0.390000 0.260000 -0.225167
v -0.443492 0.090297 -0.256050
v -0.443492 -0.090297 -0.256050
v -0.390000 -0.260000 -0.225167
v -0.289469 -0.398343 -0.167125
v -0.154023 -0.488640 -0.088925
v -0.088925 0.488640 -0.154023
v -0.167125 0.398343 -0.289469
v -0.225167 0.260000 -0.390000
v -0.256050 0.090297 -0.443492
v -0.256050 -0.090297 -0.443492
v -0.225167 -0.260000 -0.390000
v -0.167125 -0.398343 -0.289469
v -0.088925 -0.488640 -0.154023
v -0.000000 0.488640 -0.177850
v -0.000000 0.398343 -0.334249
v -0.000000 0.260000 -0.450333
v -0.000000 0.090297 -0.512100
v -0.000000 -0.090297 -0.512100
v -0.000000 -0.260000 -0.450333
v -0.000000 -0.398343 -0.334249
v -0.000000 -0.488640 -0.177850
v -0.000000 0.520000 0.000000
v 0.088925 0.488640 -0.154023
v 0.167125 0.398343 -0.289469
v 0.225166 0.260000 -0.390000
v 0.256050 0.090297 -0.443492
v 0.256050 -0.090297 -0.443492
v 0.225166 -0.260000 -0.390000
v 0.167125 -0.398343 -0.289469
v 0.088925 -0.488640 -0.154023
v 0.154023 0.488640 -0.088925
v 0.289468 0.398343 -0.167125
v 0.390000 0.260000 -0.225167
v 0.443491 0.090297 -0.256050
v 0.443491 -0.090297 -0.256050
v 0.390000 -0.260000 -0.225167
v 0.289468 -0.398343 -0.167125
v 0.154023 -0.488640 -0.088925
v 0.177850 0.488640 0.000000
v 0.334249 0.398343 0.000000
v 0.450333 0.260000 0.000000
v 0.512100 0.090297 0.000000
v 0.512100 -0.090297 0.000000
v 0.450333 -0.260000 0.000000
v 0.334249 -0.398343 0.000000
v 0.177850 -0.488640 -0.000000
v 0.154023 0.488640 0.088925
v 0.289468 0.398343 0.167125
v 0.390000 0.260000 0.225167
v 0.443491 0.090297 0.256050
v 0.443491 -0.090297 0.256050
v 0.390000 -0.260000 0.225167
v 0.289468 -0.398343 0.167125
v 0.154023 -0.488640 0.088925
v 0.088925 0.488640 0.154023
v 0.167125 0.398343 0.289469
v 0.225166 0.260000 0.390000
v 0.256050 0.090297 0.443492
v 0.256050 -0.090297 0.443492
v 0.225166 -0.260000 0.390000
v 0.167125 -0.398343 0.289469
v 0.088925 -0.488640 0.154023
v -0.000000 0.488640 0.177850
v -0.000000 0.398343 0.334249
v -0.000000 0.260000 0.450333
v -0.000000 0.090297 0.512100
v -0.000000 -0.090297 0.512100
v -0.000000 -0.260000 0.450333
v -0.000000 -0.398343 0.334249
v -0.000000 -0.488640 0.177850
v -0.000000 -0.520000 0.000000
v -0.088925 0.488640 0.154023
v -0.167125 0.398343 0.289468
v -0.225167 0.260000 0.390000
v -0.256050 0.090297 0.443491
v -0.256050 -0.090297 0.443492
v -0.225167 -0.260000 0.390000
v -0.167125 -0.398343 0.289468
v -0.088925 -0.488640 0.154023
v -0.154023 0.488640 0.088925
v -0.289469 0.398343 0.167125
v -0.390000 0.260000 0.225167
v -0.443492 0.090297 0.256050
v -0.443492 -0.090297 0.256050
v -0.390000 -0.260000 0.225167
v -0.289469 -0.398343 0.167125
v -0.154023 -0.488640 0.088925
v -0.177850 -0.488640 0.000000
vt 1.000000 0.666667
vt 0.916667 0.666667
vt 0.916667 0.555556
vt 1.000000 0.555556
vt 0.916667 0.444444
vt 1.000000 0.888889
vt 0.916667 0.888889
vt 0.916667 0.777778
vt 1.000000 0.444444
vt 0.916667 0.333333
vt 1.000000 0.777778
vt 1.000000 0.222222
vt 1.000000 0.333333
vt 0.833333 0.555556
vt 0.833333 0.444444
vt 0.833333 0.888889
vt 0.833333 0.777778
vt 0.833333 0.333333
vt 0.833333 0.222222
vt 0.833333 0.666667
vt 0.916667 0.111111
vt 0.916667 0.222222
vt 0.750000 0.777778
vt 0.750000 0.666667
vt 0.750000 0.333333
vt 0.750000 0.222222
vt 0.750000 0.111111
vt 0.750000 0.555556
vt 0.750000 0.444444
vt 0.750000 0.888889
vt 0.666667 0.222222
vt 0.666667 0.111111
vt 0.666667 0.555556
vt 0.666667 0.444444
vt 0.666667 0.888889
vt 0.666667 0.777778
vt 0.666667 0.333333
vt 0.666667 0.666667
vt 0.583333 0.444444
vt 0.583333 0.777778
vt 0.583333 0.666667
vt 0.583333 0.333333
vt 0.583333 0.222222
vt 0.583333 0.111111
vt 0.583333 0.555556
vt 0.583333 0.888889
vt 0.500000 0.666667
vt 0.500000 0.222222
vt 0.500000 0.111111
vt 0.500000 0.555556
vt 0.500000 0.444444
vt 0.500000 0.888889
vt 0.500000 0.777778
vt 0.500000 0.333333
vt 0.416667 0.888889
vt 0.416667 0.777778
vt 0.416667 0.444444
vt 0.416667 0.666667
vt 0.416667 0.333333
vt 0.416667 0.222222
vt 0.416667 0.555556
vt 0.333333 0.333333
vt 0.333333 0.222222
vt 0.333333 0.666667
vt 0.333333 0.111111
vt 0.333333 0.555556
vt 0.333333 0.444444
vt 0.333333 0.888889
vt 0.333333 0.777778
vt 0.250000 0.222222
vt 0.250000 0.111111
vt 0.250000 0.555556
vt 0.250000 0.444444
vt 0.250000 0.888889
vt 0.250000 0.777778
vt 0.250000 0.666667
vt 0.250000 0.333333
vt 0.166667 0.444444
vt 0.166667 0.333333
vt 0.166667 0.777778
vt 0.166667 0.666667
vt 0.166667 0.222222
vt 0.166667 0.555556
vt 0.166667 0.111111
vt 0.166667 0.888889
vt 0.083333 0.666667
vt 0.083333 0.555556
vt 0.083333 0.222222
vt 0.083333 0.111111
vt 0.083333 0.444444
vt 0.083333 0.888889
vt 0.083333 0.777778
vt 0.083333 0.333333
vt 1.037056 1.000000
vt 1.067166 0.000000
vt 1.000000 0.111111
vt 0.833333 0.111111
vt 0.067166 0.000000
vt 0.416667 0.111111
vt 0.037056 1.000000
vt 0.000000 0.888889
vt 0.000000 0.111111
vt 0.000000 0.444444
vt 0.000000 0.333333
vt 0.000000 0.777778
vt 0.000000 0.666667
vt 0.000000 0.222222
vt 0.000000 0.555556
vn -0.872900 0.488000 0.000000
vn -0.755900 0.488000 -0.436400
vn -0.853600 0.168900 -0.492800
vn -0.985600 0.168900 0.000000
vn -0.853600 -0.168900 -0.492800
vn -0.367000 0.930200 0.000000
vn -0.317900 0.930200 -0.183500
vn -0.570800 0.752100 -0.329500
vn -0.985600 -0.168900 0.000000
vn -0.755900 -0.488000 -0.436400
vn -0.659100 0.752100 0.000000
vn -0.659100 -0.752100 0.000000
vn -0.872900 -0.488000 0.000000
vn -0.492800 0.168900 -0.853600
vn -0.492800 -0.168900 -0.853600
vn -0.183500 0.930200 -0.317900
vn -0.329500 0.752100 -0.570800
vn -0.436400 -0.488000 -0.755900
vn -0.329500 -0.752100 -0.570800
vn -0.436400 0.488000 -0.755900
vn -0.317900 -0.930200 -0.183500
vn -0.570800 -0.752100 -0.329500
vn 0.000000 0.752100 -0.659100
vn 0.000000 0.488000 -0.872900
vn 0.000000 -0.488000 -0.872900
vn 0.000000 -0.752100 -0.659100
vn 0.000000 -0.930200 -0.367000
vn 0.000000 0.168900 -0.985600
vn 0.000000 -0.168900 -0.985600
vn 0.000000 0.930200 -0.367000
vn 0.329500 -0.752100 -0.570800
vn 0.183500 -0.930200 -0.317900
vn 0.492800 0.168900 -0.853600
vn 0.492800 -0.168900 -0.853600
vn 0.183500 0.930200 -0.317900
vn 0.329500 0.752100 -0.570800
vn 0.436400 -0.488000 -0.755900
vn 0.436400 0.488000 -0.755900
vn 0.853600 -0.168900 -0.492800
vn 0.570800 0.752100 -0.329500
vn 0.755900 0.488000 -0.436400
vn 0.755900 -0.488000 -0.436400
vn 0.570800 -0.752100 -0.329500
vn 0.317900 -0.930200 -0.183500
vn 0.853600 0.168900 -0.492800
vn 0.317900 0.930200 -0.183500
vn 0.872900 0.488000 0.000000
vn 0.659100 -0.752100 0.000000
vn 0.367000 -0.930200 0.000000
vn 0.985600 0.168900 0.000000
vn 0.985600 -0.168900 0.000000
vn 0.367000 0.930200 0.000000
vn 0.659100 0.752100 0.000000
vn 0.872900 -0.488000 0.000000
vn 0.317900 0.930200 0.183500
vn 0.570800 0.752100 0.329500
vn 0.853600 -0.168900 0.492800
vn 0.755900 0.488000 0.436400
vn 0.755900 -0.488000 0.436400
vn 0.570800 -0.752100 0.329500
vn 0.853600 0.168900 0.492800
vn 0.436400 -0.488000 0.755900
vn 0.329500 -0.752100 0.570800
vn 0.436400 0.488000 0.755900
vn 0.183500 -0.930200 0.317900
vn 0.492800 0.168900 0.853600
vn 0.492800 -0.168900 0.853600
vn 0.183500 0.930200 0.317900
vn 0.329500 0.752100 0.570800
vn 0.000000 -0.752100 0.659100
vn 0.000000 -0.930200 0.367000
vn 0.000000 0.168900 0.985600
vn 0.000000 -0.168900 0.985600
vn 0.000000 0.930200 0.367000
vn 0.000000 0.752100 0.659100
vn 0.000000 0.488000 0.872900
vn 0.000000 -0.488000 0.872900
vn -0.492800 -0.168900 0.853600
vn -0.436400 -0.488000 0.755900
vn -0.329500 0.752100 0.570800
vn -0.436400 0.488000 0.755900
vn -0.329500 -0.752100 0.570800
vn -0.492800 0.168900 0.853600
vn -0.183500 -0.930200 0.317900
vn -0.183500 0.930200 0.317900
vn -0.755900 0.488000 0.436400
vn -0.853600 0.168900 0.492800
vn -0.570800 -0.752100 0.329500
vn -0.317900 -0.930200 0.183500
vn -0.853600 -0.168900 0.492800
vn -0.317900 0.930200 0.183500
vn -0.570800 0.752100 0.329500
vn -0.755900 -0.488000 0.436400
vn 0.000000 1.000000 0.000000
vn 0.000000 -1.000000 0.000000
vn -0.367000 -0.930200 0.000000
vn -0.183500 -0.930200 -0.317900
vn 0.317900 -0.930200 0.183500
usemtl Material.001
s 1
f 3/1/1 10/2/2 11/3/3
f 4/4/4 11/3/3 12/5/5
f 1/6/6 8/7/7 9/8/8
f 5/9/9 12/5/5 13/10/10
f 2/11/11 9/8/8 10/2/2
f 7/12/12 6/13/13 13/10/10
f 11/3/3 19/14/14 20/15/15
f 8/7/7 16/16/16 17/17/17
f 12/5/5 20/15/15 21/18/18
f 10/2/2 9/8/8 17/17/17
f 13/10/10 21/18/18 22/19/19
f 10/2/2 18/20/20 19/14/14
f 15/21/21 14/22/22 22/19/19
f 17/17/17 25/23/23 26/24/24
f 21/18/18 29/25/25 30/26/26
f 19/14/14 18/20/20 26/24/24
f 22/19/19 30/26/26 31/27/27
f 19/14/14 27/28/28 28/29/29
f 17/17/17 16/16/16 24/30/30
f 21/18/18 20/15/15 28/29/29
f 30/26/26 39/31/31 40/32/32
f 27/28/28 36/33/33 37/34/34
f 24/30/30 33/35/35 34/36/36
f 28/29/29 37/34/34 38/37/37
f 25/23/23 34/36/36 35/38/38
f 29/25/25 38/37/37 39/31/31
f 26/24/24 35/38/38 36/33/33
f 38/37/37 37/34/34 45/39/39
f 34/36/36 42/40/40 43/41/41
f 38/37/37 46/42/42 47/43/43
f 36/33/33 35/38/38 43/41/41
f 39/31/31 47/43/43 48/44/44
f 36/33/33 44/45/45 45/39/39
f 33/35/35 41/46/46 42/40/40
f 44/45/45 43/41/41 51/47/47
f 47/43/43 55/48/48 56/49/49
f 44/45/45 52/50/50 53/51/51
f 41/46/46 49/52/52 50/53/53
f 46/42/42 45/39/39 53/51/51
f 42/40/40 50/53/53 51/47/47
f 47/43/43 46/42/42 54/54/54
f 49/52/52 57/55/55 58/56/56
f 54/54/54 53/51/51 61/57/57
f 50/53/53 58/56/56 59/58/58
f 54/54/54 62/59/59 63/60/60
f 51/47/47 59/58/58 60/61/61
f 56/49/49 55/48/48 63/60/60
f 52/50/50 60/61/61 61/57/57
f 62/59/59 70/62/62 71/63/63
f 60/61/61 59/58/58 67/64/64
f 63/60/60 71/63/63 72/65/65
f 60/61/61 68/66/66 69/67/67
f 57/55/55 65/68/68 66/69/69
f 62/59/59 61/57/57 69/67/67
f 58/56/56 66/69/69 67/64/64
f 71/63/63 79/70/70 80/71/71
f 68/66/66 76/72/72 77/73/73
f 65/68/68 73/74/74 74/75/75
f 70/62/62 69/67/67 77/73/73
f 66/69/69 74/75/75 75/76/76
f 70/62/62 78/77/77 79/70/70
f 68/66/66 67/64/64 75/76/76
f 77/73/73 86/78/78 87/79/79
f 74/75/75 83/80/80 84/81/81
f 78/77/77 87/79/79 88/82/82
f 75/76/76 84/81/81 85/83/83
f 79/70/70 88/82/82 89/84/84
f 76/72/72 85/83/83 86/78/78
f 73/74/74 82/85/85 83/80/80
f 84/81/81 92/86/86 93/87/87
f 88/82/82 96/88/88 97/89/89
f 85/83/83 93/87/87 94/90/90
f 82/85/85 90/91/91 91/92/92
f 86/78/78 94/90/90 95/93/93
f 83/80/80 91/92/92 92/86/86
f 88/82/82 87/79/79 95/93/93
f 1/6/6 32/94/94 8/7/7
f 7/12/12 14/22/22 15/21/21
f 81/95/95 98/96/96 15/21/21
f 81/95/95 15/21/21 23/97/97
f 8/7/7 32/94/94 16/16/16
f 16/16/16 32/94/94 24/30/30
f 81/95/95 23/97/97 31/27/27
f 24/30/30 32/94/94 33/35/35
f 81/95/95 31/27/27 40/32/32
f 33/35/35 32/94/94 41/46/46
f 81/95/95 40/32/32 48/44/44
f 41/46/46 32/94/94 49/52/52
f 81/95/95 48/44/44 56/49/49
f 81/98/95 56/49/49 64/99/98
f 49/52/52 32/100/94 57/55/55
f 57/55/55 32/100/94 65/68/68
f 81/98/95 64/99/98 72/65/65
f 81/98/95 72/65/65 80/71/71
f 65/68/68 32/100/94 73/74/74
f 73/74/74 32/100/94 82/85/85
f 81/98/95 80/71/71 89/84/84
f 82/85/85 32/100/94 90/91/91
f 81/98/95 89/84/84 97/89/89
f 91/92/92 90/91/91 1/101/6
f 81/98/95 97/89/89 98/102/96
f 94/90/90 5/103/9 6/104/13
f 91/92/92 2/105/11 3/106/1
f 96/88/88 95/93/93 6/104/13
f 93/87/87 92/86/86 3/106/1
f 90/91/91 32/100/94 1/101/6
f 96/88/88 7/107/12 98/102/96
f 93/87/87 4/108/4 5/103/9
f 4/4/4 3/1/1 11/3/3
f 5/9/9 4/4/4 12/5/5
f 2/11/11 1/6/6 9/8/8
f 6/13/13 5/9/9 13/10/10
f 3/1/1 2/11/11 10/2/2
f 14/22/22 7/12/12 13/10/10
f 12/5/5 11/3/3 20/15/15
f 9/8/8 8/7/7 17/17/17
f 13/10/10 12/5/5 21/18/18
f 18/20/20 10/2/2 17/17/17
f 14/22/22 13/10/10 22/19/19
f 11/3/3 10/2/2 19/14/14
f 23/97/97 15/21/21 22/19/19
f 18/20/20 17/17/17 26/24/24
f 22/19/19 21/18/18 30/26/26
f 27/28/28 19/14/14 26/24/24
f 23/97/97 22/19/19 31/27/27
f 20/15/15 19/14/14 28/29/29
f 25/23/23 17/17/17 24/30/30
f 29/25/25 21/18/18 28/29/29
f 31/27/27 30/26/26 40/32/32
f 28/29/29 27/28/28 37/34/34
f 25/23/23 24/30/30 34/36/36
f 29/25/25 28/29/29 38/37/37
f 26/24/24 25/23/23 35/38/38
f 30/26/26 29/25/25 39/31/31
f 27/28/28 26/24/24 36/33/33
f 46/42/42 38/37/37 45/39/39
f 35/38/38 34/36/36 43/41/41
f 39/31/31 38/37/37 47/43/43
f 44/45/45 36/33/33 43/41/41
f 40/32/32 39/31/31 48/44/44
f 37/34/34 36/33/33 45/39/39
f 34/36/36 33/35/35 42/40/40
f 52/50/50 44/45/45 51/47/47
f 48/44/44 47/43/43 56/49/49
f 45/39/39 44/45/45 53/51/51
f 42/40/40 41/46/46 50/53/53
f 54/54/54 46/42/42 53/51/51
f 43/41/41 42/40/40 51/47/47
f 55/48/48 47/43/43 54/54/54
f 50/53/53 49/52/52 58/56/56
f 62/59/59 54/54/54 61/57/57
f 51/47/47 50/53/53 59/58/58
f 55/48/48 54/54/54 63/60/60
f 52/50/50 51/47/47 60/61/61
f 64/99/98 56/49/49 63/60/60
f 53/51/51 52/50/50 61/57/57
f 63/60/60 62/59/59 71/63/63
f 68/66/66 60/61/61 67/64/64
f 64/99/98 63/60/60 72/65/65
f 61/57/57 60/61/61 69/67/67
f 58/56/56 57/55/55 66/69/69
f 70/62/62 62/59/59 69/67/67
f 59/58/58 58/56/56 67/64/64
f 72/65/65 71/63/63 80/71/71
f 69/67/67 68/66/66 77/73/73
f 66/69/69 65/68/68 74/75/75
f 78/77/77 70/62/62 77/73/73
f 67/64/64 66/69/69 75/76/76
f 71/63/63 70/62/62 79/70/70
f 76/72/72 68/66/66 75/76/76
f 78/77/77 77/73/73 87/79/79
f 75/76/76 74/75/75 84/81/81
f 79/70/70 78/77/77 88/82/82
f 76/72/72 75/76/76 85/83/83
f 80/71/71 79/70/70 89/84/84
f 77/73/73 76/72/72 86/78/78
f 74/75/75 73/74/74 83/80/80
f 85/83/83 84/81/81 93/87/87
f 89/84/84 88/82/82 97/89/89
f 86/78/78 85/83/83 94/90/90
f 83/80/80 82/85/85 91/92/92
f 87/79/79 86/78/78 95/93/93
f 84/81/81 83/80/80 92/86/86
f 96/88/88 88/82/82 95/93/93
f 98/96/96 7/12/12 15/21/21
f 2/105/11 91/92/92 1/101/6
f 95/93/93 94/90/90 6/104/13
f 92/86/86 91/92/92 3/106/1
f 7/107/12 96/88/88 6/104/13
f 4/108/4 93/87/87 3/106/1
f 97/89/89 96/88/88 98/102/96
f 94/90/90 93/87/87 5/103/9
